<svg width="46" height="46" fill="none" stroke="currentColor" stroke-linecap="round" stroke-linejoin="round" stroke-width="2" viewBox="0 0 24 24" xmlns="http://www.w3.org/2000/svg">
  <path d="M4 2a2 2 0 0 0-2 2"></path>
  <path d="M8 2h2"></path>
  <path d="M14 2h2"></path>
  <path d="M4 22a2 2 0 0 1-2-2"></path>
  <path d="M22 8v2"></path>
  <path d="M22 14v2"></path>
  <path d="M22 20a2 2 0 0 1-2 2"></path>
  <path d="M14 22h2"></path>
  <path d="M8 22h2"></path>
  <path d="M20 2a2 2 0 0 1 2 2"></path>
  <path d="M2 14v2"></path>
  <path d="M2 8v2"></path>
</svg>