<svg width="46" height="46" fill="none" stroke="currentColor" stroke-linecap="round" stroke-linejoin="round" stroke-width="2" viewBox="0 0 24 24" xmlns="http://www.w3.org/2000/svg">
  <path d="M9 11a1 1 0 1 0 0 2 1 1 0 1 0 0-2z"></path>
  <path d="M9 4a1 1 0 1 0 0 2 1 1 0 1 0 0-2z"></path>
  <path d="M9 18a1 1 0 1 0 0 2 1 1 0 1 0 0-2z"></path>
  <path d="M15 11a1 1 0 1 0 0 2 1 1 0 1 0 0-2z"></path>
  <path d="M15 4a1 1 0 1 0 0 2 1 1 0 1 0 0-2z"></path>
  <path d="M15 18a1 1 0 1 0 0 2 1 1 0 1 0 0-2z"></path>
</svg>