<svg width="46" height="46" fill="none" stroke="currentColor" stroke-linecap="round" stroke-linejoin="round" stroke-width="2" viewBox="0 0 24 24" xmlns="http://www.w3.org/2000/svg">
  <path d="M13.5 6a.5.5 0 1 0 0 1 .5.5 0 1 0 0-1z"></path>
  <path d="M17.5 10a.5.5 0 1 0 0 1 .5.5 0 1 0 0-1z"></path>
  <path d="M8.5 7a.5.5 0 1 0 0 1 .5.5 0 1 0 0-1z"></path>
  <path d="M6.5 12a.5.5 0 1 0 0 1 .5.5 0 1 0 0-1z"></path>
  <path d="M12 2C6.5 2 2 6.5 2 12s4.5 10 10 10c.926 0 1.648-.746 1.648-1.688 0-.437-.18-.835-.437-1.125-.29-.289-.438-.652-.438-1.125a1.64 1.64 0 0 1 1.668-1.668h1.996c3.051 0 5.555-2.503 5.555-5.554C21.965 6.012 17.461 2 12 2z"></path>
</svg>