<svg width="46" height="46" fill="none" stroke="currentColor" stroke-linecap="round" stroke-linejoin="round" stroke-width="2" viewBox="0 0 24 24" xmlns="http://www.w3.org/2000/svg">
  <path d="M10.68 13.31a15.995 15.995 0 0 0 3.41 2.6l1.27-1.27a2 2 0 0 1 2.11-.45c.908.34 1.85.574 2.81.7a2 2 0 0 1 1.72 2v3a2.002 2.002 0 0 1-2.18 2 19.788 19.788 0 0 1-8.63-3.07 19.414 19.414 0 0 1-3.33-2.67l2.82-2.84Zm0 0a15.995 15.995 0 0 0 3.41 2.6l1.27-1.27a2 2 0 0 1 2.11-.45c.908.34 1.85.574 2.81.7a2 2 0 0 1 1.72 2v3a2.002 2.002 0 0 1-2.18 2"></path>
  <path d="M5.19 12.81a19.79 19.79 0 0 1-3.07-8.63A2 2 0 0 1 4.11 2h3a2 2 0 0 1 2 1.72c.127.96.362 1.903.7 2.81a2 2 0 0 1-.45 2.11L8.09 9.91"></path>
  <path d="M22 2 2 22"></path>
</svg>