<svg width="46" height="46" fill="none" stroke="currentColor" stroke-linecap="round" stroke-linejoin="round" stroke-width="2" viewBox="0 0 24 24" xmlns="http://www.w3.org/2000/svg">
  <path d="M10.258 3.447A3.6 3.6 0 0 1 15.03 4.66a3.6 3.6 0 0 1 4.3 4.3 3.6 3.6 0 0 1 .01 6.07 3.6 3.6 0 0 1-4.3 4.3A3.6 3.6 0 0 1 12 21a3.6 3.6 0 0 1-3.01-1.67 3.6 3.6 0 0 1-3.35-.96 3.6 3.6 0 0 1-.95-3.32A3.6 3.6 0 0 1 3 12a3.6 3.6 0 0 1 1.69-3.04 3.6 3.6 0 0 1 .94-3.32 3.6 3.6 0 0 1 2.42-1.06 3.6 3.6 0 0 1 .9.1 3.6 3.6 0 0 1 1.308-1.233Z"></path>
  <path d="m15 10-4 4"></path>
  <path d="m9 12 2 2"></path>
</svg>