<?xml version="1.0" standalone="no"?>
<!DOCTYPE svg PUBLIC "-//W3C//DTD SVG 20010904//EN"
 "http://www.w3.org/TR/2001/REC-SVG-20010904/DTD/svg10.dtd">
<svg version="1.0" xmlns="http://www.w3.org/2000/svg"
 width="105.000000pt" height="115.000000pt" viewBox="0 0 105.000000 115.000000"
 preserveAspectRatio="xMidYMid meet">

<g transform="translate(0.000000,115.000000) scale(0.100000,-0.100000)"
fill="#000000" stroke="none">
<path d="M0 575 l0 -575 525 0 525 0 0 575 0 575 -525 0 -525 0 0 -575z m629
461 c28 -25 51 -75 51 -110 0 -56 -89 -59 -134 -5 -34 40 -35 91 -2 124 27 27
46 25 85 -9z m-71 -338 c-3 -62 -3 -63 -34 -66 -29 -3 -32 0 -37 30 -2 18 -2
48 1 66 4 29 8 32 39 32 l34 0 -3 -62z"/>
</g>
</svg>
