<?xml version="1.0" standalone="no"?>
<!DOCTYPE svg PUBLIC "-//W3C//DTD SVG 20010904//EN"
 "http://www.w3.org/TR/2001/REC-SVG-20010904/DTD/svg10.dtd">
<svg version="1.0" xmlns="http://www.w3.org/2000/svg"
 width="300.000000pt" height="300.000000pt" viewBox="0 0 300.000000 300.000000"
 preserveAspectRatio="xMidYMid meet">

<g transform="translate(0.000000,300.000000) scale(0.100000,-0.100000)"
fill="#000000" stroke="none">
<path d="M0 1500 l0 -1500 1500 0 1500 0 0 1500 0 1500 -1500 0 -1500 0 0
-1500z m1905 1198 l26 -23 -1 -315 c0 -312 -1 -314 -24 -355 -13 -22 -103
-118 -199 -212 -155 -154 -178 -173 -208 -173 -29 0 -52 19 -216 182 -100 100
-189 196 -198 214 -12 27 -15 86 -15 347 l0 316 26 20 c26 20 37 21 405 21
377 0 378 0 404 -22z m-961 -770 c33 -9 76 -47 219 -187 98 -97 185 -188 193
-203 8 -15 12 -38 8 -51 -7 -31 -370 -392 -407 -406 -18 -7 -143 -11 -337 -11
l-309 0 -20 26 c-20 26 -21 37 -21 411 l0 384 25 24 24 25 292 0 c196 0 305
-4 333 -12z m1767 -17 c18 -22 19 -44 19 -406 0 -372 -1 -383 -21 -409 l-20
-26 -310 0 c-243 0 -317 3 -342 14 -39 17 -392 372 -402 403 -3 12 0 34 9 50
8 15 95 107 193 204 124 122 189 179 213 186 23 8 141 11 338 10 l304 -2 19
-24z m-1008 -698 c93 -93 183 -188 198 -212 l29 -45 0 -317 0 -318 -26 -20
c-26 -20 -37 -21 -405 -21 l-378 0 -28 24 -28 24 -3 279 c-2 188 0 296 8 333
12 53 18 61 204 248 173 174 194 192 225 192 30 0 51 -18 204 -167z"/>
<path d="M1182 2335 l3 -265 157 -157 158 -158 150 150 c108 107 153 160 161
185 6 21 9 130 7 270 l-3 235 -318 3 -318 2 3 -265z"/>
<path d="M390 1505 l0 -315 263 0 262 0 158 158 157 158 -158 157 -158 157
-262 0 -262 0 0 -315z"/>
<path d="M1928 1663 l-158 -157 157 -158 158 -158 262 0 263 0 0 315 0 315
-262 0 -262 0 -158 -157z"/>
<path d="M1340 1085 l-155 -155 -3 -265 -3 -265 318 2 318 3 3 230 c2 127 0
246 -3 265 -5 28 -36 65 -158 188 -83 83 -154 152 -157 152 -3 0 -75 -70 -160
-155z"/>
</g>
</svg>
